<svg width="1366" height="657" viewBox="0 0 1366 657" fill="none" xmlns="http://www.w3.org/2000/svg">
<g clip-path="url(#clip0_3_13)">
<rect width="1366" height="657" fill="white"/>
<g clip-path="url(#clip1_3_13)">
<path opacity="0.8" d="M0.328512 305.852C17.4537 318.569 53.0201 335.048 85.5725 349.046C277.926 431.783 481.375 321.127 511.158 304.359C705.22 195.093 653.373 71.0295 802.988 13.8895C983.695 -55.1262 1140.86 94.7191 1260.19 -1.00769C1308.48 -39.7459 1357.54 -60.1293 1365.11 -102.001L1366 750.671L0.203728 757.505C1.29052 678.056 -0.758274 385.302 0.328512 305.852Z" fill="url(#paint0_linear_3_13)"/>
<path opacity="0.502" d="M1406.96 394.636C1406.96 394.636 1338.96 348.455 1253.98 410.008C1169 471.56 1112.44 539.763 965.398 545.103C818.351 550.443 471.083 456.901 303.993 521.082C136.903 585.262 19.1558 721.919 133.909 892.929C248.663 1063.94 766.037 892.929 766.037 892.929H1406.96L1406.96 394.636Z" fill="white"/>
</g>
<g clip-path="url(#clip2_3_13)">
<path d="M152.834 627.652C187.999 627.652 216.506 623.335 216.506 618.011C216.506 612.686 187.999 608.369 152.834 608.369C117.668 608.369 89.1613 612.686 89.1613 618.011C89.1613 623.335 117.668 627.652 152.834 627.652Z" fill="#85CCD5"/>
<path d="M127.875 617.974C149.25 617.974 166.578 600.646 166.578 579.271C166.578 557.896 149.25 540.568 127.875 540.568C106.5 540.568 89.1719 557.896 89.1719 579.271C89.1719 600.646 106.5 617.974 127.875 617.974Z" fill="#E0E0E0"/>
<path d="M127.879 612.981C134.225 612.984 140.443 611.194 145.817 607.819C151.19 604.443 155.502 599.619 158.254 593.901C161.007 588.183 162.089 581.805 161.375 575.499C160.662 569.193 158.183 563.217 154.222 558.259C152.66 556.272 150.866 554.478 148.879 552.915C142.403 547.753 134.252 545.156 125.982 545.622C117.713 546.087 109.905 549.582 104.048 555.438C98.1917 561.295 94.6972 569.103 94.2318 577.372C93.7665 585.641 96.363 593.792 101.525 600.269C103.091 602.257 104.884 604.055 106.869 605.625C112.829 610.4 120.242 612.996 127.879 612.981V612.981Z" fill="white"/>
<path d="M106.868 605.627L154.221 558.259C152.659 556.272 150.865 554.478 148.878 552.915L101.524 600.269C103.09 602.258 104.883 604.056 106.868 605.627Z" fill="#E0E0E0"/>
<path d="M179.498 619.553C202.894 619.553 221.86 609.423 221.86 596.926C221.86 584.43 202.894 574.3 179.498 574.3C156.102 574.3 137.136 584.43 137.136 596.926C137.136 609.423 156.102 619.553 179.498 619.553Z" fill="#FBC02D"/>
<path d="M181.683 614.319C201.132 614.319 216.899 605.899 216.899 595.511C216.899 585.124 201.132 576.703 181.683 576.703C162.234 576.703 146.468 585.124 146.468 595.511C146.468 605.899 162.234 614.319 181.683 614.319Z" fill="#FDD835"/>
<path d="M176.94 585.255C175.961 589.735 182.806 595.043 192.235 597.094C201.664 599.145 210.095 597.181 211.073 592.698C212.051 588.214 205.207 582.91 195.778 580.859C186.349 578.808 177.917 580.772 176.94 585.255Z" fill="#FFEE58"/>
<path d="M154.612 589.644C155.261 591.706 159.304 592.271 163.633 590.906C167.962 589.541 170.953 586.766 170.306 584.705C169.658 582.645 165.613 582.077 161.284 583.441C156.955 584.805 153.963 587.584 154.612 589.644Z" fill="#FFEE58"/>
<path d="M311.563 631.555C325.307 631.555 336.448 629.704 336.448 627.419C336.448 625.135 325.307 623.283 311.563 623.283C297.82 623.283 286.678 625.135 286.678 627.419C286.678 629.704 297.82 631.555 311.563 631.555Z" fill="#85CCD5"/>
<path d="M328.346 534.301V624.276C328.345 625.271 327.95 626.225 327.246 626.928C326.543 627.632 325.589 628.028 324.594 628.028H299.121C298.628 628.028 298.14 627.932 297.685 627.743C297.23 627.555 296.816 627.278 296.468 626.93C296.119 626.581 295.843 626.168 295.654 625.712C295.466 625.257 295.369 624.769 295.369 624.276L295.369 534.295C295.344 532.427 295.901 530.597 296.963 529.06C298.024 527.522 299.538 526.353 301.294 525.715C302.315 525.347 303.2 524.676 303.829 523.792C304.458 522.907 304.801 521.851 304.813 520.766C304.814 520.223 304.728 519.683 304.559 519.166C303.587 516.198 303.243 513.059 303.549 509.95L306.973 474.934C307.1 473.729 307.669 472.614 308.57 471.803C309.471 470.993 310.64 470.544 311.852 470.544C313.064 470.544 314.233 470.993 315.133 471.803C316.034 472.614 316.603 473.729 316.731 474.934L320.143 509.95C320.45 513.059 320.106 516.198 319.133 519.166C318.723 520.469 318.835 521.88 319.446 523.101C320.056 524.323 321.117 525.259 322.404 525.714C324.163 526.352 325.68 527.522 326.744 529.06C327.809 530.599 328.369 532.43 328.346 534.301Z" fill="white"/>
<path d="M300.047 541.935V624.052H323.661V541.935H300.047Z" fill="#4DB6AC"/>
<path opacity="0.5" d="M307.241 573.869C307.241 596.224 306.116 614.346 304.729 614.346C303.341 614.346 302.217 596.224 302.217 573.869C302.217 551.515 303.342 533.392 304.729 533.392C306.115 533.392 307.241 551.514 307.241 573.869Z" fill="white"/>
<path d="M328.346 551.293V604.461H314.801C313.882 604.461 313.001 604.096 312.351 603.446C311.702 602.796 311.336 601.915 311.336 600.996V554.758C311.336 553.839 311.702 552.958 312.351 552.309C313.001 551.659 313.882 551.294 314.801 551.294L328.346 551.293Z" fill="white"/>
<path d="M328.346 559.768V576.768H320.729C320.014 576.768 319.328 576.484 318.823 575.979C318.317 575.473 318.033 574.788 318.033 574.073V562.456C318.034 561.743 318.319 561.059 318.825 560.554C319.33 560.05 320.015 559.767 320.729 559.768H328.346Z" fill="#37474F"/>
<path d="M328.346 582.436V587.818H320.729C320.015 587.819 319.33 587.536 318.825 587.032C318.319 586.528 318.034 585.844 318.033 585.131V585.123C318.034 584.409 318.319 583.726 318.825 583.222C319.33 582.718 320.015 582.435 320.729 582.436H328.346Z" fill="#37474F"/>
<path d="M328.346 591.962V597.352H320.729C320.015 597.352 319.33 597.069 318.825 596.565C318.319 596.061 318.034 595.377 318.033 594.663V594.65C318.034 593.937 318.319 593.253 318.825 592.748C319.33 592.244 320.015 591.961 320.729 591.962H328.346Z" fill="#37474F"/>
<path d="M245.524 663.429C282.736 663.429 312.902 659.676 312.902 655.046C312.902 650.415 282.736 646.662 245.524 646.662C208.313 646.662 178.147 650.415 178.147 655.046C178.147 659.676 208.313 663.429 245.524 663.429Z" fill="#85CCD5"/>
<path d="M217.734 450.418C217.734 450.418 185.175 414.04 182.302 410.504C179.429 406.967 168.869 376.755 166.64 368.455C165.026 362.434 179.018 362.278 179.018 362.278C179.018 362.278 192.823 395.591 195.587 398.797C198.352 402.003 237.26 431.358 237.26 431.358L217.734 450.418Z" fill="#F3F4F9"/>
<path d="M182.257 347.879C184.417 348.527 180.269 360.483 180.269 360.483C178.314 364.819 174.742 365.848 170.318 365.126C170.318 365.126 151.238 349.694 156.987 349.694C162.735 349.694 176.291 354.294 176.291 354.294C176.291 354.294 180.048 347.215 182.257 347.879Z" fill="#ED9D66"/>
<path d="M263.6 442.041C263.6 442.041 292.542 414.247 295.403 410.729C298.265 407.21 318.495 377.699 320.691 372.375C322.887 367.051 311.292 359.941 309.039 363.664C306.785 367.387 287.266 396.652 284.515 399.84C281.765 403.029 252.703 420.547 252.703 420.547L263.6 442.041Z" fill="#F3F4F9"/>
<path d="M307.39 350.624C305.23 351.27 309.38 363.226 309.38 363.226C311.335 367.563 314.905 368.591 319.331 367.869C319.331 367.869 338.308 353.838 332.556 353.838C326.803 353.838 313.358 357.038 313.358 357.038C313.358 357.038 309.602 349.96 307.39 350.624Z" fill="#ED9D66"/>
<path d="M238.531 655.78C238.531 658.478 217.53 657.635 217.193 655.302C216.856 652.968 221.152 649.472 220.865 644.485C220.398 632.507 227.356 627.108 231.686 643.363C232.45 646.351 238.531 652.502 238.531 655.78Z" fill="#EBEBEB"/>
<path d="M284.847 655.485C284.803 657.477 254.131 657.511 253.801 655.173C253.472 652.836 255.377 649.848 255.091 644.863C254.625 632.883 263.687 627.35 268.017 643.604C268.4 645.097 274.95 649.256 278.836 650.629C283.974 652.458 284.867 654.49 284.847 655.485Z" fill="#EBEBEB"/>
<path d="M237.888 654.392C237.846 656.386 218.157 656.053 217.82 653.72C217.483 651.386 220.135 648.302 219.847 643.317C219.38 631.337 227.359 625.496 231.685 641.75C232.449 644.739 237.928 652.396 237.888 654.392Z" fill="#1A2268"/>
<path d="M284.377 654.017C284.334 656.012 254.302 655.892 253.959 653.559C253.617 651.225 254.721 648.302 254.434 643.32C253.968 631.34 264.246 625.5 268.578 641.753C268.959 643.247 274.31 648.278 278.192 649.655C283.333 651.477 284.401 653.017 284.377 654.017Z" fill="#1A2268"/>
<path d="M265.921 631.9C265.969 630.338 268.294 627.493 268.41 625.434C269.377 607.852 275.359 576.781 276.355 571.474C277.351 566.167 271.048 526.701 261.867 504.455L223.022 493.901C223.172 495.843 223.678 497.739 224.515 499.497L211.36 500.224C206.31 525.927 212.365 556.276 212.019 573.798C211.928 578.472 210.029 587.396 210.36 597.346C210.61 604.854 216.42 619.103 217.651 630.024C217.864 631.927 215.299 635.176 215.66 637.335C216.022 639.494 219.85 643.317 219.85 643.317C222.836 637.833 227.387 638.663 231.688 641.75C231.688 641.75 234.201 640.784 234.199 638.831C234.192 636.911 232.824 632.891 232.706 629.691C232.123 613.791 230.215 592.527 232.349 582.821C236.889 562.19 236.195 529.309 239.54 529.355C242.885 529.401 257.189 572.813 256.737 575.917C256.203 579.543 251.451 589.355 251.233 595.221C250.988 601.844 252.068 616.89 252.821 630.242C252.951 632.57 250.664 636.876 250.996 639.362C251.329 641.848 254.644 645.002 254.644 645.002C262.274 645.002 268.369 641.528 269.072 640.026C269.208 638.841 269.037 637.642 268.574 636.543C267.737 634.861 265.871 633.535 265.921 631.9Z" fill="#1A2268"/>
<path d="M215.787 488.781C217.262 485.998 218.367 477.527 218.367 475.165C218.367 474.014 210.608 425.122 213.945 422.004C217.283 418.885 221.498 420.212 227.051 416.904C235.499 411.869 246.742 417.061 246.742 417.061C246.742 417.061 253.824 421.547 267.279 419.429C267.279 419.429 269.417 453.495 264.933 465.546C262.647 471.679 264.895 487.556 265.155 490.176C265.414 492.796 266.534 501.147 265.713 502.228C265.814 503.515 265.887 504.254 265.887 504.254C265.887 504.254 239.423 511.256 215.841 496.122C215.521 496.266 215.318 496.335 215.318 496.335C215.318 496.335 215.365 489.576 215.787 488.781Z" fill="#1883DE"/>
<path d="M266.476 501.574C258.491 502.013 237.628 506.835 214.044 494.572C212.771 493.911 212.462 497.424 213.454 498.146C213.586 498.242 237.728 512.572 266.687 505.5C267.898 505.2 268.004 501.488 266.476 501.574Z" fill="#263238"/>
<path d="M243.495 425.999C250.787 453.753 252.88 489.928 251.247 494.921C250.59 496.931 246.629 496.859 245.881 494.932C245.134 493.005 247.769 464.429 239.648 426.234C240.884 423.669 242.161 423.336 243.495 425.999Z" fill="#1A2268"/>
<path d="M212.655 467.911C213.341 478.88 212.521 489.891 210.217 500.638C206.387 518.741 202.891 561.923 203.255 564.696C203.618 567.469 223.446 570.962 229.016 567.479C234.587 563.995 234.761 453.696 222.439 418.302L205.2 423.228L212.655 467.911Z" fill="#F3F4F9"/>
<path d="M230.414 393.851C231.253 396.598 230.227 399.345 228.126 399.985C226.025 400.624 223.647 398.918 222.804 396.17C221.961 393.421 222.991 390.675 225.093 390.034C227.195 389.393 229.577 391.098 230.414 393.851Z" fill="#ED9D66"/>
<path d="M245.107 393.668C244.163 396.382 245.083 399.164 247.156 399.886C249.229 400.608 251.678 398.993 252.62 396.278C253.561 393.564 252.647 390.782 250.571 390.059C248.494 389.337 246.049 390.954 245.107 393.668Z" fill="#ED9D66"/>
<path d="M228.688 419.943H247.313V419.919C246.266 416.732 244.668 397.931 244.668 397.931L229.048 406.293C229.048 406.293 229.86 414.988 228.688 419.943Z" fill="#E29059"/>
<path d="M225.369 378.353C229.902 371.973 246.795 372.444 249.721 378.59C252.646 384.736 246.998 410.351 245.571 411.494C244.144 412.638 232.666 412.921 231.057 411.251C229.447 409.581 221.757 383.436 225.369 378.353Z" fill="#ED9D66"/>
<path d="M225.23 392.997C226.496 393.021 226.76 379.083 228.884 378.187C231.009 377.291 236.336 380.438 238.91 380.488C241.483 380.539 244.959 377.54 247.142 379.227C249.325 380.914 248.719 390.931 250.105 391.895C251.49 392.859 259.125 370.808 238.288 370.403C217.451 369.999 223.964 392.971 225.23 392.997Z" fill="#37474F"/>
<path d="M245.149 421.445C245.174 423.114 244.586 424.734 243.498 425.999C242.325 424.848 241.031 425.09 239.652 426.234C238.051 425.366 236.734 424.054 235.86 422.456L240.424 418.715H242.494L245.149 421.445Z" fill="#1A2268"/>
<path d="M246.475 415.189L249.07 417.93C249.47 419.327 249.36 420.82 248.761 422.143C248.162 423.466 247.112 424.534 245.799 425.156C245.099 421.925 244.027 420.723 242.493 418.715C245.182 418.575 246.002 417.158 246.475 415.189Z" fill="#81D4FA"/>
<path d="M240.421 418.715C238.072 420.546 236.356 423.067 235.515 425.923C232.089 425.097 227.883 420.612 226.584 417.128L229.283 413.52C233.706 417.462 236.422 418.635 240.421 418.715Z" fill="#81D4FA"/>
<path d="M266.508 564.989C267.698 565.908 277.898 566.58 278.952 564.644C280.006 562.708 268.581 515.279 268.222 505.158C267.737 491.613 267.475 468.081 268.35 458.053C269.224 448.026 268.03 416.315 268.03 416.315L253.585 419.445C253.585 419.445 260.788 426.569 259.908 466.497C259.029 506.426 262.639 562.003 266.508 564.989Z" fill="#F3F4F9"/>
<path d="M219.242 494.392C216.074 494.537 212.908 494.084 209.909 493.055C209.909 493.055 207.226 511.447 208.166 512.628C208.951 513.62 217.476 515.027 218.593 514.175C219.929 513.163 219.242 494.392 219.242 494.392Z" fill="#CAD3DB"/>
<path d="M262.624 494.392C262.624 494.392 267.707 493.984 269.562 492.954C269.562 492.954 270.309 511.405 269.368 512.589C268.583 513.579 264.39 515.027 263.273 514.175C261.938 513.163 262.624 494.392 262.624 494.392Z" fill="#CAD3DB"/>
<path d="M260.479 457.964C262.022 449.89 262.756 441.683 262.667 433.464C262.644 432.581 258.896 431.488 258.844 430.608C258.794 429.792 262.441 429.187 262.363 428.381C262.142 426.119 260.118 415.837 259.927 415.191C259.737 414.545 252.36 418.204 252.626 419.232C252.892 420.26 259.355 440.922 260.479 457.964Z" fill="#CAD3DB"/>
<path d="M229.464 456.439C227.295 448.168 224.472 440.082 221.021 432.259C220.655 431.453 223.465 429.934 223.302 429.065C223.15 428.261 219.831 428.467 219.575 427.697C218.497 424.428 216.138 415.164 216.162 414.49C216.185 413.816 222.596 417.057 222.994 418.042C225.53 424.296 231.563 438.042 229.464 456.439Z" fill="#CAD3DB"/>
<path d="M363.688 317.408C363.688 328.606 358.505 338.816 350.196 346.224C341.196 354.038 329.653 358.297 317.735 358.201H165.945C140.652 358.201 119.991 339.828 119.991 317.408C119.991 306.209 125.138 296 133.483 288.592C142.487 280.785 154.028 276.527 165.945 276.616H317.736C343.028 276.616 363.688 294.988 363.688 317.408Z" fill="#85CCD5"/>
<path d="M245.567 276.616H165.945C154.028 276.527 142.487 280.785 133.483 288.592C125.137 296 119.991 306.214 119.991 317.408C119.991 339.828 140.652 358.201 165.945 358.201H245.566L245.567 276.616Z" fill="#B5DBE0"/>
<path opacity="0.5" d="M323.248 295.748H162.332C158.644 295.748 155.627 293.069 155.627 289.796C155.627 286.521 158.644 283.843 162.332 283.843H323.248C326.936 283.843 329.953 286.521 329.953 289.796C329.955 293.069 326.938 295.748 323.248 295.748Z" fill="white"/>
</g>
<g clip-path="url(#clip3_3_13)">
<path d="M926.382 353.178C926.382 357.337 973.105 360.704 1030.74 360.704C1088.38 360.704 1135.1 357.335 1135.1 353.178C1135.1 349.021 1088.38 345.652 1030.74 345.652C973.105 345.652 926.382 349.022 926.382 353.178Z" fill="#85CCD5"/>
<path d="M1039.6 295.026C1038.04 285.413 1028.98 278.884 1019.37 280.444C1009.76 282.004 1003.23 291.062 1004.79 300.676C1006.35 310.289 1015.41 316.818 1025.02 315.258C1034.63 313.698 1041.16 304.64 1039.6 295.026Z" fill="#9CCC65"/>
<path d="M1006.84 297.852C1006.83 300.744 1007.65 303.577 1009.19 306.026C1010.72 308.474 1012.92 310.439 1015.53 311.693C1018.13 312.947 1021.04 313.44 1023.91 313.115C1026.79 312.79 1029.51 311.66 1031.77 309.855C1032.67 309.143 1033.49 308.326 1034.2 307.421C1036.54 304.468 1037.72 300.758 1037.5 296.997C1037.28 293.235 1035.69 289.684 1033.03 287.02C1030.36 284.356 1026.81 282.764 1023.05 282.547C1019.29 282.331 1015.58 283.504 1012.63 285.845C1011.72 286.558 1010.9 287.375 1010.19 288.279C1008.01 290.995 1006.83 294.372 1006.84 297.852V297.852Z" fill="#C5E1A5"/>
<path d="M1010.19 288.279L1031.77 309.855C1032.68 309.143 1033.49 308.326 1034.21 307.421L1012.63 285.845C1011.72 286.558 1010.9 287.375 1010.19 288.279V288.279Z" fill="#9CCC65"/>
<path d="M978.676 348.218C1006.22 348.218 1028.55 336.292 1028.55 321.58C1028.55 306.869 1006.22 294.943 978.676 294.943C951.131 294.943 928.802 306.869 928.802 321.58C928.802 336.292 951.131 348.218 978.676 348.218Z" fill="#7986CB"/>
<path d="M981.248 342.058C1004.14 342.058 1022.71 332.145 1022.71 319.915C1022.71 307.686 1004.14 297.772 981.248 297.772C958.351 297.772 939.789 307.686 939.789 319.915C939.789 332.145 958.351 342.058 981.248 342.058Z" fill="#9FA8DA"/>
<path d="M975.664 307.84C974.513 313.119 982.575 319.359 993.672 321.783C1004.77 324.207 1014.7 321.889 1015.86 316.607C1017.01 311.324 1008.94 305.089 997.848 302.665C986.752 300.242 976.816 302.562 975.664 307.84Z" fill="#C5CAE9"/>
<path d="M949.376 313.009C950.14 315.435 954.895 316.101 959.997 314.496C965.1 312.891 968.615 309.62 967.852 307.194C967.09 304.767 962.333 304.101 957.231 305.706C952.128 307.311 948.611 310.582 949.376 313.009Z" fill="#C5CAE9"/>
<path d="M1028.09 336.038C1028.11 340.907 1030.05 345.573 1033.49 349.016C1036.93 352.46 1041.6 354.399 1046.47 354.411H1107.15C1112.02 354.411 1116.7 352.475 1120.14 349.029C1123.59 345.584 1125.53 340.91 1125.53 336.037C1125.53 331.164 1123.59 326.491 1120.14 323.045C1116.7 319.6 1112.02 317.664 1107.15 317.664H1046.47C1041.6 317.678 1036.93 319.619 1033.49 323.061C1030.05 326.504 1028.11 331.169 1028.09 336.038Z" fill="#E57373"/>
<path d="M1033.97 336.046C1033.99 339.354 1035.31 342.52 1037.65 344.858C1039.99 347.197 1043.15 348.52 1046.46 348.541H1107.15C1110.44 348.51 1113.59 347.181 1115.91 344.841C1118.22 342.501 1119.52 339.341 1119.52 336.047C1119.52 332.753 1118.22 329.593 1115.91 327.253C1113.59 324.913 1110.44 323.584 1107.15 323.553H1046.46C1043.15 323.558 1039.97 324.876 1037.63 327.218C1035.29 329.56 1033.97 332.734 1033.97 336.046Z" fill="#EF9A9A"/>
<path d="M1072.36 323.552L1072.37 348.54H1081.27V323.552H1072.36Z" fill="#E57373"/>
<path d="M994.578 349.216C997.297 353.256 1001.5 356.055 1006.28 357.001C1011.06 357.947 1016.02 356.963 1020.07 354.264L1070.5 320.504C1074.55 317.793 1077.36 313.585 1078.3 308.805C1079.25 304.025 1078.26 299.065 1075.55 295.016C1072.84 290.966 1068.63 288.159 1063.85 287.213C1059.07 286.266 1054.11 287.257 1050.06 289.967L999.63 323.727C995.592 326.446 992.794 330.654 991.847 335.429C990.9 340.205 991.882 345.162 994.578 349.216V349.216Z" fill="white"/>
<path d="M1023.6 307.674L1050.06 289.969C1054.11 287.259 1059.07 286.268 1063.85 287.215C1068.63 288.162 1072.84 290.968 1075.55 295.018C1078.26 299.067 1079.25 304.028 1078.3 308.807C1077.36 313.587 1074.55 317.796 1070.5 320.506L1044.05 338.21L1023.6 307.674Z" fill="#29B6F6"/>
<path opacity="0.5" d="M1002.59 332.114L1056.05 296.324C1056.64 295.927 1057.05 295.313 1057.19 294.616C1057.33 293.919 1057.18 293.196 1056.79 292.605V292.605C1056.39 292.015 1055.78 291.607 1055.08 291.469C1054.39 291.331 1053.66 291.474 1053.07 291.868L999.605 327.658C999.016 328.055 998.607 328.669 998.469 329.366C998.332 330.063 998.475 330.786 998.869 331.377V331.377C999.266 331.967 999.879 332.375 1000.58 332.513C1001.27 332.651 1002 332.508 1002.59 332.114V332.114Z" fill="white"/>
<path d="M1107.43 167.102C1107.43 167.102 1103.74 179.323 1100.33 181.111C1096.91 182.898 1065.95 181.111 1065.95 181.111L1069.79 191.164C1069.79 191.164 1111.95 194.518 1114.79 191.164C1117.63 187.809 1118.91 175.072 1118.91 175.072L1107.43 167.102Z" fill="#E2B6A9"/>
<path d="M1126.74 132.468C1135.22 134.252 1138.4 137.48 1138.11 147.049C1137.82 156.618 1135.64 184.569 1134.73 186.562C1133.82 188.554 1104.77 171.365 1103.91 169.232C1103.06 167.099 1110.76 152.053 1111.37 147.048C1111.97 142.043 1118.25 130.684 1126.74 132.468Z" fill="#D2DEE8"/>
<path d="M1158.02 391.393C1186.26 391.393 1209.14 388.039 1209.14 383.902C1209.14 379.766 1186.26 376.412 1158.02 376.412C1129.79 376.412 1106.91 379.766 1106.91 383.902C1106.91 388.039 1129.79 391.393 1158.02 391.393Z" fill="#85CCD5"/>
<path d="M1143.87 378.248L1138.46 375.238C1138.46 375.238 1137.3 376.978 1136.35 378.1C1134.53 380.266 1125.78 381.833 1125.78 384.904C1125.78 386.453 1129.04 387.846 1131.7 387.952C1133.87 388.044 1136.04 387.744 1138.11 387.068C1139.67 386.556 1143.25 385.098 1143.82 384.141C1144.11 383.592 1144.27 382.988 1144.31 382.371C1144.35 381.753 1144.25 381.134 1144.04 380.555C1144.31 378.843 1143.87 378.248 1143.87 378.248Z" fill="#F0F0F0"/>
<path d="M1136.35 378.1C1137.14 379.347 1138.22 380.383 1139.5 381.119C1140.66 381.759 1144.03 380.555 1144.03 380.555C1144.2 379.165 1144.24 377.763 1144.16 376.365L1136.9 375.063C1137.14 375.563 1137.21 376.125 1137.11 376.669C1137.02 377.214 1136.75 377.714 1136.35 378.1V378.1Z" fill="#FCD2C5"/>
<path d="M1123.18 203.465C1127.51 205.359 1146.42 207.29 1159.46 206.435V240.477C1156.92 242.479 1142.08 281.062 1135.67 303.326C1135.46 304.058 1144.95 369.502 1144.95 376.496C1142.31 379.417 1137.04 376.554 1136.97 376.267C1136.97 376.267 1116.47 343.129 1113.17 303.095C1109.33 256.588 1122.66 207.196 1123.18 203.465Z" fill="#4D3782"/>
<path d="M1184.83 378.632L1179.2 376.054C1179.2 376.054 1178.18 377.88 1177.32 379.074C1175.67 381.375 1167.07 383.622 1167.31 386.684C1167.43 388.229 1170.79 389.362 1173.45 389.258C1176.11 389.155 1178.42 388.824 1179.77 387.872C1181.46 386.69 1184.75 385.504 1185.24 384.506C1185.48 383.936 1185.6 383.322 1185.58 382.703C1185.57 382.084 1185.43 381.475 1185.17 380.915C1185.31 379.188 1184.83 378.632 1184.83 378.632Z" fill="#F0F0F0"/>
<path d="M1177.32 379.074C1178.2 380.255 1179.36 381.202 1180.69 381.834C1181.9 382.379 1185.17 380.918 1185.17 380.918C1185.32 379.189 1185.23 376.603 1185.23 376.603L1178.04 375.823C1178.18 376.385 1178.18 376.969 1178.06 377.532C1177.93 378.095 1177.68 378.622 1177.32 379.074V379.074Z" fill="#FCD2C5"/>
<path d="M1146.64 206.022C1151.04 200.311 1167.23 193.979 1178.51 198.753C1194.7 229.59 1173.27 274.699 1170.48 303.777C1170.48 303.777 1185.77 343.843 1185.77 376.799C1183.35 379.917 1177.89 377.477 1177.79 377.195C1177.79 363.805 1151.04 329.954 1148.09 305.697C1142.44 259.274 1146.41 209.793 1146.64 206.022Z" fill="#4D3782"/>
<path d="M1115.55 150.941C1115.74 153.413 1118.41 163.512 1118.56 178.846C1118.98 223.922 1108.14 266.456 1106.69 278.274C1109.34 295.978 1148.97 303.991 1172.83 292.961L1177.67 268.815L1179.02 291.691C1180.56 291.404 1183.85 291.321 1185.09 291.144C1189.49 219.707 1193.58 138.564 1160.57 124.38C1157.94 123.25 1144.15 122.182 1144.15 122.182C1144.15 122.182 1138.62 127.634 1134.77 128.179C1132.14 128.544 1129.7 125.839 1129.7 125.839C1129.7 125.839 1120.34 129.359 1118.67 130.488C1112.19 134.837 1114.98 143.503 1115.55 150.941Z" fill="#F3F4F9"/>
<path d="M1129.34 145.774C1129.34 145.774 1144.9 130.338 1155.37 124.389C1153.6 123.698 1151.75 123.214 1149.87 122.946L1144.14 122.177C1144.14 122.177 1138.62 127.645 1134.77 128.179C1132.13 128.545 1129.69 125.833 1129.69 125.833C1126.72 126.822 1123.81 127.991 1120.99 129.332C1122.07 137.117 1129.34 145.774 1129.34 145.774Z" fill="#4D3782"/>
<path d="M1125.63 111.984C1125.79 112.924 1129.48 122.577 1128.03 128.248C1129.68 133.105 1143.51 131.199 1146.14 122.217C1144.21 120.03 1141.1 107.421 1141.12 102.729C1140.1 103.734 1129.11 112.024 1125.63 111.984Z" fill="#E8BFB3"/>
<path d="M1126.3 87.9403C1119.98 88.3914 1114.12 90.694 1113.56 96.8052C1113.36 98.9947 1116.96 117.987 1127.57 119.454C1132.05 120.076 1139.31 111.535 1138.94 106.46C1138.94 106.46 1138.45 99.5429 1138.45 99.4725C1137.97 92.7396 1133.09 87.4518 1126.3 87.9403Z" fill="#FCD2C5"/>
<path d="M1139.95 82.8252C1127.54 73.6115 1117.25 83.336 1116.7 86.5847C1106.2 90.1533 1110.76 105.616 1116.03 107.217C1112.07 95.9317 1119.41 91.0683 1119.41 91.0683C1134.01 88.8073 1141.54 105.527 1141.19 110.179C1141.19 110.179 1158.14 96.3284 1139.95 82.8252Z" fill="#444D98"/>
<path d="M1190.16 98.1255C1185.39 95.3856 1182.11 95.2171 1177.32 83.1739C1161.43 43.2263 1132.33 70.8535 1136.5 81.347C1137.53 83.9269 1140.79 85.1331 1142.07 81.6669C1144.22 75.8139 1155.97 67.4822 1156.25 94.798C1156.33 102.002 1150.45 113.181 1172.8 119.17C1193.03 124.59 1180.46 133.098 1182.95 137.763C1189.37 149.745 1213.68 111.653 1190.16 98.1255Z" fill="#444D98"/>
<path d="M1139.51 78.895C1138.71 78.5284 1137.8 78.4273 1136.93 78.606C1135.74 78.9167 1134.68 79.6264 1133.95 80.6175C1138.62 81.4611 1142.86 85.0521 1142.86 85.0521C1143.54 82.7676 1143.14 80.4511 1139.51 78.895Z" fill="#4D3782"/>
<path d="M1137.83 96.8627C1136.83 97.0737 1135.92 97.5424 1135.16 98.2215C1136.38 100.713 1137.71 103.143 1139.17 105.501C1140.03 104.939 1140.74 104.165 1141.22 103.253C1141.71 102.341 1141.95 101.321 1141.93 100.288C1141.62 98.5617 1139.55 96.5492 1137.83 96.8627Z" fill="#FCD2C5"/>
<path d="M1094.46 160.642C1098.87 162.903 1117.83 205.749 1114.6 207.135C1111.38 208.52 1083.72 206.672 1081.41 206.672C1079.11 206.672 1055.57 164.623 1057.59 161.647C1057.59 161.647 1057.54 160.104 1059.86 159.036C1062.18 157.967 1090.42 158.566 1094.46 160.642Z" fill="#B2EBF2"/>
<path d="M1092.63 162.568C1097.04 164.829 1115.22 205.902 1111.99 207.287C1108.76 208.673 1081.1 206.823 1078.8 206.823C1076.5 206.823 1055.29 164.412 1057.59 161.644C1059.9 158.877 1086.94 159.648 1092.63 162.568Z" fill="#E0F7FA"/>
<path d="M1108.92 185.156C1108.92 185.156 1106.56 174.48 1103.03 174.02C1100.57 173.7 1102.01 178.247 1102.01 178.247C1097.37 179.971 1092.23 179.805 1087.72 177.784C1079.88 174.412 1090.64 193.314 1095.71 193.777C1100.79 194.239 1108 195.304 1108 195.304L1108.92 185.156Z" fill="#FCD2C5"/>
<path d="M1070.81 193.763C1066.97 195.308 1056.98 183.621 1062.97 179.471C1068.96 175.321 1074.65 192.221 1070.81 193.763Z" fill="#FCD2C5"/>
<path d="M1168.09 144.479C1169.73 159.495 1165.56 208.601 1159.33 209.446C1147.6 211.037 1108 195.302 1108 195.302L1106.77 184.704C1106.77 184.704 1144.2 196.049 1151.34 190.696C1154.54 188.293 1144.88 151.974 1148.57 142.139C1151.35 134.715 1166.78 132.481 1168.09 144.479Z" fill="#FCD2C5"/>
<path d="M1160.58 132.468C1169.06 134.252 1172.24 137.48 1171.95 147.049C1171.66 156.618 1169.48 184.569 1168.57 186.562C1167.66 188.554 1149.2 181.935 1148.35 179.806C1147.49 177.678 1144.6 152.059 1145.2 147.05C1145.81 142.042 1152.09 130.684 1160.58 132.468Z" fill="#D2DEE8"/>
<path d="M1082.06 159.928C1082.06 159.928 1081.26 155.022 1080.07 154.861C1078.87 154.7 1068.27 154.352 1067.47 154.861C1066.68 155.371 1068.19 159.455 1068.19 159.455L1082.06 159.928Z" fill="#B2EBF2"/>
<path d="M1080.11 154.962C1079.58 155.27 1079.1 155.655 1078.69 156.103L1080.11 160.304L1081.9 158.907C1081.9 158.907 1080.87 154.554 1080.11 154.962Z" fill="#8ED7E0"/>
<path d="M1078.69 156.095C1078.69 156.095 1067.42 155.205 1067.23 155.593C1067.04 155.981 1068.22 159.966 1068.22 159.966C1068.22 159.966 1071.46 159.878 1074.02 159.966C1076.58 160.053 1080.15 160.311 1080.15 160.311L1078.69 156.095Z" fill="#7CCBD5"/>
</g>
</g>
<defs>
<linearGradient id="paint0_linear_3_13" x1="34.1497" y1="497.075" x2="1235.11" y2="-277.818" gradientUnits="userSpaceOnUse">
<stop stop-color="#E8F5B3"/>
<stop offset="0.165" stop-color="#D3E2F7"/>
<stop offset="0.276" stop-color="#E3EEF9"/>
<stop offset="0.472" stop-color="#E9F3FA"/>
<stop offset="0.649" stop-color="#C9DEF8"/>
<stop offset="0.907" stop-color="#D4E397"/>
<stop offset="1" stop-color="#C4D2E6"/>
</linearGradient>
<clipPath id="clip0_3_13">
<rect width="1366" height="657" fill="white"/>
</clipPath>
<clipPath id="clip1_3_13">
<rect width="1366" height="859.505" fill="white" transform="translate(0 -102)"/>
</clipPath>
<clipPath id="clip2_3_13">
<rect width="274.528" height="386.815" fill="white" transform="translate(89.1613 276.616)"/>
</clipPath>
<clipPath id="clip3_3_13">
<rect width="282.762" height="329.147" fill="white" transform="translate(926.382 62.2445)"/>
</clipPath>
</defs>
</svg>
