<svg width="1366" height="860" viewBox="0 0 1366 860" fill="none" xmlns="http://www.w3.org/2000/svg">
<g clip-path="url(#clip0_3_128)">
<path opacity="0.8" d="M0.328512 407.852C17.4537 420.569 53.0201 437.048 85.5725 451.046C277.926 533.783 481.375 423.127 511.158 406.359C705.22 297.093 653.373 173.029 802.988 115.889C983.695 46.8737 1140.86 196.719 1260.19 100.992C1308.48 62.2541 1357.54 41.8707 1365.11 -0.00100708L1366 852.671L0.203728 859.505C1.29052 780.056 -0.758274 487.302 0.328512 407.852Z" fill="url(#paint0_linear_3_128)"/>
<path opacity="0.502" d="M1406.96 496.636C1406.96 496.636 1338.96 450.455 1253.98 512.008C1169 573.56 1112.44 641.763 965.398 647.103C818.351 652.443 471.083 558.901 303.993 623.082C136.903 687.262 19.1558 823.919 133.909 994.929C248.663 1165.94 766.037 994.929 766.037 994.929H1406.96L1406.96 496.636Z" fill="white"/>
</g>
<g clip-path="url(#clip1_3_128)">
<path d="M152.834 729.652C187.999 729.652 216.506 725.335 216.506 720.011C216.506 714.686 187.999 710.369 152.834 710.369C117.668 710.369 89.1613 714.686 89.1613 720.011C89.1613 725.335 117.668 729.652 152.834 729.652Z" fill="#85CCD5"/>
<path d="M127.875 719.974C149.25 719.974 166.578 702.646 166.578 681.271C166.578 659.896 149.25 642.568 127.875 642.568C106.5 642.568 89.1719 659.896 89.1719 681.271C89.1719 702.646 106.5 719.974 127.875 719.974Z" fill="#E0E0E0"/>
<path d="M127.879 714.981C134.225 714.984 140.443 713.194 145.817 709.819C151.19 706.443 155.502 701.619 158.254 695.901C161.007 690.183 162.089 683.805 161.375 677.499C160.662 671.193 158.183 665.217 154.222 660.259C152.66 658.272 150.866 656.478 148.879 654.915C142.403 649.753 134.252 647.156 125.982 647.622C117.713 648.087 109.905 651.582 104.048 657.438C98.1917 663.295 94.6972 671.103 94.2318 679.372C93.7665 687.641 96.363 695.792 101.525 702.269C103.091 704.257 104.884 706.055 106.869 707.625C112.829 712.4 120.242 714.996 127.879 714.981V714.981Z" fill="white"/>
<path d="M106.868 707.627L154.221 660.259C152.659 658.272 150.865 656.478 148.878 654.915L101.524 702.269C103.09 704.258 104.883 706.056 106.868 707.627Z" fill="#E0E0E0"/>
<path d="M179.498 721.553C202.894 721.553 221.86 711.423 221.86 698.926C221.86 686.43 202.894 676.3 179.498 676.3C156.102 676.3 137.136 686.43 137.136 698.926C137.136 711.423 156.102 721.553 179.498 721.553Z" fill="#FBC02D"/>
<path d="M181.683 716.319C201.132 716.319 216.899 707.899 216.899 697.511C216.899 687.124 201.132 678.703 181.683 678.703C162.234 678.703 146.468 687.124 146.468 697.511C146.468 707.899 162.234 716.319 181.683 716.319Z" fill="#FDD835"/>
<path d="M176.94 687.255C175.961 691.735 182.806 697.043 192.235 699.094C201.664 701.145 210.095 699.181 211.073 694.698C212.051 690.214 205.207 684.91 195.778 682.859C186.349 680.808 177.917 682.772 176.94 687.255Z" fill="#FFEE58"/>
<path d="M154.612 691.644C155.261 693.706 159.304 694.271 163.633 692.906C167.962 691.541 170.953 688.766 170.306 686.705C169.658 684.645 165.613 684.077 161.284 685.441C156.955 686.805 153.963 689.584 154.612 691.644Z" fill="#FFEE58"/>
<path d="M311.563 733.555C325.307 733.555 336.448 731.704 336.448 729.419C336.448 727.135 325.307 725.283 311.563 725.283C297.82 725.283 286.678 727.135 286.678 729.419C286.678 731.704 297.82 733.555 311.563 733.555Z" fill="#85CCD5"/>
<path d="M328.346 636.301V726.276C328.345 727.271 327.95 728.225 327.246 728.928C326.543 729.632 325.589 730.028 324.594 730.028H299.121C298.628 730.028 298.14 729.932 297.685 729.743C297.23 729.555 296.816 729.278 296.468 728.93C296.119 728.581 295.843 728.168 295.654 727.712C295.466 727.257 295.369 726.769 295.369 726.276L295.369 636.295C295.344 634.427 295.901 632.597 296.963 631.06C298.024 629.522 299.538 628.353 301.294 627.715C302.315 627.347 303.2 626.676 303.829 625.792C304.458 624.907 304.801 623.851 304.813 622.766C304.814 622.223 304.728 621.683 304.559 621.166C303.587 618.198 303.243 615.059 303.549 611.95L306.973 576.934C307.1 575.729 307.669 574.614 308.57 573.803C309.471 572.993 310.64 572.544 311.852 572.544C313.064 572.544 314.233 572.993 315.133 573.803C316.034 574.614 316.603 575.729 316.731 576.934L320.143 611.95C320.45 615.059 320.106 618.198 319.133 621.166C318.723 622.469 318.835 623.88 319.446 625.101C320.056 626.323 321.117 627.259 322.404 627.714C324.163 628.352 325.68 629.522 326.744 631.06C327.809 632.599 328.369 634.43 328.346 636.301Z" fill="white"/>
<path d="M300.047 643.935V726.052H323.661V643.935H300.047Z" fill="#4DB6AC"/>
<path opacity="0.5" d="M307.241 675.869C307.241 698.224 306.116 716.346 304.729 716.346C303.341 716.346 302.217 698.224 302.217 675.869C302.217 653.515 303.342 635.392 304.729 635.392C306.115 635.392 307.241 653.514 307.241 675.869Z" fill="white"/>
<path d="M328.346 653.293V706.461H314.801C313.882 706.461 313.001 706.096 312.351 705.446C311.702 704.796 311.336 703.915 311.336 702.996V656.758C311.336 655.839 311.702 654.958 312.351 654.309C313.001 653.659 313.882 653.294 314.801 653.294L328.346 653.293Z" fill="white"/>
<path d="M328.346 661.768V678.768H320.729C320.014 678.768 319.328 678.484 318.823 677.979C318.317 677.473 318.033 676.788 318.033 676.073V664.456C318.034 663.743 318.319 663.059 318.825 662.554C319.33 662.05 320.015 661.767 320.729 661.768H328.346Z" fill="#37474F"/>
<path d="M328.346 684.436V689.818H320.729C320.015 689.819 319.33 689.536 318.825 689.032C318.319 688.528 318.034 687.844 318.033 687.131V687.123C318.034 686.409 318.319 685.726 318.825 685.222C319.33 684.718 320.015 684.435 320.729 684.436H328.346Z" fill="#37474F"/>
<path d="M328.346 693.962V699.352H320.729C320.015 699.352 319.33 699.069 318.825 698.565C318.319 698.061 318.034 697.377 318.033 696.663V696.65C318.034 695.937 318.319 695.253 318.825 694.748C319.33 694.244 320.015 693.961 320.729 693.962H328.346Z" fill="#37474F"/>
<path d="M245.524 765.429C282.736 765.429 312.902 761.676 312.902 757.046C312.902 752.415 282.736 748.662 245.524 748.662C208.313 748.662 178.147 752.415 178.147 757.046C178.147 761.676 208.313 765.429 245.524 765.429Z" fill="#85CCD5"/>
<path d="M217.734 552.418C217.734 552.418 185.175 516.04 182.302 512.504C179.429 508.967 168.869 478.755 166.64 470.455C165.026 464.434 179.018 464.278 179.018 464.278C179.018 464.278 192.823 497.591 195.587 500.797C198.352 504.003 237.26 533.358 237.26 533.358L217.734 552.418Z" fill="#F3F4F9"/>
<path d="M182.257 449.879C184.417 450.527 180.269 462.483 180.269 462.483C178.314 466.819 174.742 467.848 170.318 467.126C170.318 467.126 151.238 451.694 156.987 451.694C162.735 451.694 176.291 456.294 176.291 456.294C176.291 456.294 180.048 449.215 182.257 449.879Z" fill="#ED9D66"/>
<path d="M263.6 544.041C263.6 544.041 292.542 516.247 295.403 512.729C298.265 509.21 318.495 479.699 320.691 474.375C322.887 469.051 311.292 461.941 309.039 465.664C306.785 469.387 287.266 498.652 284.515 501.84C281.765 505.029 252.703 522.547 252.703 522.547L263.6 544.041Z" fill="#F3F4F9"/>
<path d="M307.39 452.624C305.23 453.27 309.38 465.226 309.38 465.226C311.335 469.563 314.905 470.591 319.331 469.869C319.331 469.869 338.308 455.838 332.556 455.838C326.803 455.838 313.358 459.038 313.358 459.038C313.358 459.038 309.602 451.96 307.39 452.624Z" fill="#ED9D66"/>
<path d="M238.531 757.78C238.531 760.478 217.53 759.635 217.193 757.302C216.856 754.968 221.152 751.472 220.865 746.485C220.398 734.507 227.356 729.108 231.686 745.363C232.45 748.351 238.531 754.502 238.531 757.78Z" fill="#EBEBEB"/>
<path d="M284.847 757.485C284.803 759.477 254.131 759.511 253.801 757.173C253.472 754.836 255.377 751.848 255.091 746.863C254.625 734.883 263.687 729.35 268.017 745.604C268.4 747.097 274.95 751.256 278.836 752.629C283.974 754.458 284.867 756.49 284.847 757.485Z" fill="#EBEBEB"/>
<path d="M237.888 756.392C237.846 758.386 218.157 758.053 217.82 755.72C217.483 753.386 220.135 750.302 219.847 745.317C219.38 733.337 227.359 727.496 231.685 743.75C232.449 746.739 237.928 754.396 237.888 756.392Z" fill="#1A2268"/>
<path d="M284.377 756.017C284.334 758.012 254.302 757.892 253.959 755.559C253.617 753.225 254.721 750.302 254.434 745.32C253.968 733.34 264.246 727.5 268.578 743.753C268.959 745.247 274.31 750.278 278.192 751.655C283.333 753.477 284.401 755.017 284.377 756.017Z" fill="#1A2268"/>
<path d="M265.921 733.9C265.969 732.338 268.294 729.493 268.41 727.434C269.377 709.852 275.359 678.781 276.355 673.474C277.351 668.167 271.048 628.701 261.867 606.455L223.022 595.901C223.172 597.843 223.678 599.739 224.515 601.497L211.36 602.224C206.31 627.927 212.365 658.276 212.019 675.798C211.928 680.472 210.029 689.396 210.36 699.346C210.61 706.854 216.42 721.103 217.651 732.024C217.864 733.927 215.299 737.176 215.66 739.335C216.022 741.493 219.85 745.317 219.85 745.317C222.836 739.833 227.387 740.663 231.688 743.75C231.688 743.75 234.201 742.784 234.199 740.831C234.192 738.911 232.824 734.891 232.706 731.691C232.123 715.791 230.215 694.527 232.349 684.821C236.889 664.19 236.195 631.309 239.54 631.355C242.885 631.401 257.189 674.813 256.737 677.917C256.203 681.543 251.451 691.355 251.233 697.221C250.988 703.844 252.068 718.89 252.821 732.242C252.951 734.57 250.664 738.876 250.996 741.362C251.329 743.848 254.644 747.002 254.644 747.002C262.274 747.002 268.369 743.528 269.072 742.026C269.208 740.841 269.037 739.642 268.574 738.543C267.737 736.861 265.871 735.535 265.921 733.9Z" fill="#1A2268"/>
<path d="M215.787 590.781C217.262 587.998 218.367 579.527 218.367 577.165C218.367 576.014 210.608 527.122 213.945 524.004C217.283 520.885 221.498 522.212 227.051 518.904C235.499 513.869 246.742 519.061 246.742 519.061C246.742 519.061 253.824 523.547 267.279 521.429C267.279 521.429 269.417 555.495 264.933 567.546C262.647 573.679 264.895 589.556 265.155 592.176C265.414 594.796 266.534 603.147 265.713 604.228C265.814 605.515 265.887 606.254 265.887 606.254C265.887 606.254 239.423 613.256 215.841 598.122C215.521 598.266 215.318 598.335 215.318 598.335C215.318 598.335 215.365 591.576 215.787 590.781Z" fill="#1883DE"/>
<path d="M266.476 603.574C258.491 604.013 237.628 608.835 214.044 596.572C212.771 595.911 212.462 599.424 213.454 600.146C213.586 600.242 237.728 614.572 266.687 607.5C267.898 607.2 268.004 603.488 266.476 603.574Z" fill="#263238"/>
<path d="M243.495 527.999C250.787 555.753 252.88 591.928 251.247 596.921C250.59 598.931 246.629 598.859 245.881 596.932C245.134 595.005 247.769 566.429 239.648 528.234C240.884 525.669 242.161 525.336 243.495 527.999Z" fill="#1A2268"/>
<path d="M212.655 569.911C213.341 580.88 212.521 591.891 210.217 602.638C206.387 620.741 202.891 663.923 203.255 666.696C203.618 669.469 223.446 672.962 229.016 669.479C234.587 665.995 234.761 555.696 222.439 520.302L205.2 525.228L212.655 569.911Z" fill="#F3F4F9"/>
<path d="M230.414 495.851C231.253 498.598 230.227 501.345 228.126 501.985C226.025 502.624 223.647 500.918 222.804 498.17C221.961 495.421 222.991 492.675 225.093 492.034C227.195 491.393 229.577 493.098 230.414 495.851Z" fill="#ED9D66"/>
<path d="M245.107 495.668C244.163 498.382 245.083 501.164 247.156 501.886C249.229 502.608 251.678 500.993 252.62 498.278C253.561 495.564 252.647 492.782 250.571 492.059C248.494 491.337 246.049 492.954 245.107 495.668Z" fill="#ED9D66"/>
<path d="M228.688 521.943H247.313V521.919C246.266 518.732 244.668 499.931 244.668 499.931L229.048 508.293C229.048 508.293 229.86 516.988 228.688 521.943Z" fill="#E29059"/>
<path d="M225.369 480.353C229.902 473.973 246.795 474.444 249.721 480.59C252.646 486.736 246.998 512.351 245.571 513.494C244.144 514.638 232.666 514.921 231.057 513.251C229.447 511.581 221.757 485.436 225.369 480.353Z" fill="#ED9D66"/>
<path d="M225.23 494.997C226.496 495.021 226.76 481.083 228.884 480.187C231.009 479.291 236.336 482.438 238.91 482.488C241.483 482.539 244.959 479.54 247.142 481.227C249.325 482.914 248.719 492.931 250.105 493.895C251.49 494.859 259.125 472.808 238.288 472.403C217.451 471.999 223.964 494.971 225.23 494.997Z" fill="#37474F"/>
<path d="M245.149 523.445C245.174 525.114 244.586 526.734 243.498 527.999C242.325 526.848 241.031 527.09 239.652 528.234C238.051 527.366 236.734 526.054 235.86 524.456L240.424 520.715H242.494L245.149 523.445Z" fill="#1A2268"/>
<path d="M246.475 517.189L249.07 519.93C249.47 521.327 249.36 522.82 248.761 524.143C248.162 525.466 247.112 526.534 245.799 527.156C245.099 523.925 244.027 522.723 242.493 520.715C245.182 520.575 246.002 519.158 246.475 517.189Z" fill="#81D4FA"/>
<path d="M240.421 520.715C238.072 522.546 236.356 525.067 235.515 527.923C232.089 527.097 227.883 522.612 226.584 519.128L229.283 515.52C233.706 519.462 236.422 520.635 240.421 520.715Z" fill="#81D4FA"/>
<path d="M266.508 666.989C267.698 667.908 277.898 668.58 278.952 666.644C280.006 664.708 268.581 617.279 268.222 607.158C267.737 593.613 267.475 570.081 268.35 560.053C269.224 550.026 268.03 518.315 268.03 518.315L253.585 521.445C253.585 521.445 260.788 528.569 259.908 568.497C259.029 608.426 262.639 664.003 266.508 666.989Z" fill="#F3F4F9"/>
<path d="M219.242 596.392C216.074 596.537 212.908 596.084 209.909 595.055C209.909 595.055 207.226 613.447 208.166 614.628C208.951 615.62 217.476 617.027 218.593 616.175C219.929 615.163 219.242 596.392 219.242 596.392Z" fill="#CAD3DB"/>
<path d="M262.624 596.392C262.624 596.392 267.707 595.984 269.562 594.954C269.562 594.954 270.309 613.405 269.368 614.589C268.583 615.579 264.39 617.027 263.273 616.175C261.938 615.163 262.624 596.392 262.624 596.392Z" fill="#CAD3DB"/>
<path d="M260.479 559.964C262.022 551.89 262.756 543.683 262.667 535.464C262.644 534.581 258.896 533.488 258.844 532.608C258.794 531.792 262.441 531.187 262.363 530.381C262.142 528.119 260.118 517.837 259.927 517.191C259.737 516.545 252.36 520.204 252.626 521.232C252.892 522.26 259.355 542.922 260.479 559.964Z" fill="#CAD3DB"/>
<path d="M229.464 558.439C227.295 550.168 224.472 542.082 221.021 534.259C220.655 533.453 223.465 531.934 223.302 531.065C223.15 530.261 219.831 530.467 219.575 529.697C218.497 526.428 216.138 517.164 216.162 516.49C216.185 515.816 222.596 519.057 222.994 520.042C225.53 526.296 231.563 540.042 229.464 558.439Z" fill="#CAD3DB"/>
<path d="M363.688 419.408C363.688 430.606 358.505 440.816 350.196 448.224C341.196 456.038 329.653 460.297 317.735 460.201H165.945C140.652 460.201 119.991 441.828 119.991 419.408C119.991 408.209 125.138 398 133.483 390.592C142.487 382.785 154.028 378.527 165.945 378.616H317.736C343.028 378.616 363.688 396.989 363.688 419.408Z" fill="#85CCD5"/>
<path d="M245.567 378.616H165.945C154.028 378.527 142.487 382.785 133.483 390.592C125.137 398 119.991 408.214 119.991 419.408C119.991 441.828 140.652 460.201 165.945 460.201H245.566L245.567 378.616Z" fill="#B5DBE0"/>
<path opacity="0.5" d="M323.248 397.748H162.332C158.644 397.748 155.627 395.069 155.627 391.796C155.627 388.521 158.644 385.843 162.332 385.843H323.248C326.936 385.843 329.953 388.521 329.953 391.796C329.955 395.069 326.938 397.748 323.248 397.748Z" fill="white"/>
</g>
<g clip-path="url(#clip2_3_128)">
<path d="M926.382 455.178C926.382 459.337 973.105 462.704 1030.74 462.704C1088.38 462.704 1135.1 459.335 1135.1 455.178C1135.1 451.021 1088.38 447.652 1030.74 447.652C973.105 447.652 926.382 451.022 926.382 455.178Z" fill="#85CCD5"/>
<path d="M1039.6 397.026C1038.04 387.413 1028.98 380.884 1019.37 382.444C1009.76 384.004 1003.23 393.062 1004.79 402.676C1006.35 412.289 1015.41 418.818 1025.02 417.258C1034.63 415.698 1041.16 406.64 1039.6 397.026Z" fill="#9CCC65"/>
<path d="M1006.84 399.852C1006.83 402.744 1007.65 405.577 1009.19 408.026C1010.72 410.474 1012.92 412.439 1015.53 413.693C1018.13 414.947 1021.04 415.44 1023.91 415.115C1026.79 414.79 1029.51 413.66 1031.77 411.855C1032.67 411.143 1033.49 410.326 1034.2 409.421C1036.54 406.468 1037.72 402.758 1037.5 398.997C1037.28 395.235 1035.69 391.684 1033.03 389.02C1030.36 386.356 1026.81 384.764 1023.05 384.547C1019.29 384.331 1015.58 385.504 1012.63 387.845C1011.72 388.558 1010.9 389.375 1010.19 390.279C1008.01 392.995 1006.83 396.372 1006.84 399.852V399.852Z" fill="#C5E1A5"/>
<path d="M1010.19 390.279L1031.77 411.855C1032.68 411.143 1033.49 410.326 1034.21 409.421L1012.63 387.845C1011.72 388.558 1010.9 389.375 1010.19 390.279V390.279Z" fill="#9CCC65"/>
<path d="M978.676 450.218C1006.22 450.218 1028.55 438.292 1028.55 423.58C1028.55 408.869 1006.22 396.943 978.676 396.943C951.131 396.943 928.802 408.869 928.802 423.58C928.802 438.292 951.131 450.218 978.676 450.218Z" fill="#7986CB"/>
<path d="M981.248 444.058C1004.14 444.058 1022.71 434.145 1022.71 421.915C1022.71 409.686 1004.14 399.772 981.248 399.772C958.351 399.772 939.789 409.686 939.789 421.915C939.789 434.145 958.351 444.058 981.248 444.058Z" fill="#9FA8DA"/>
<path d="M975.664 409.84C974.513 415.119 982.575 421.359 993.672 423.783C1004.77 426.207 1014.7 423.889 1015.86 418.607C1017.01 413.324 1008.94 407.089 997.848 404.665C986.752 402.242 976.816 404.562 975.664 409.84Z" fill="#C5CAE9"/>
<path d="M949.376 415.009C950.14 417.435 954.895 418.101 959.997 416.496C965.1 414.891 968.615 411.62 967.852 409.194C967.09 406.767 962.333 406.101 957.231 407.706C952.128 409.311 948.611 412.582 949.376 415.009Z" fill="#C5CAE9"/>
<path d="M1028.09 438.038C1028.11 442.907 1030.05 447.573 1033.49 451.016C1036.93 454.46 1041.6 456.399 1046.47 456.411H1107.15C1112.02 456.411 1116.7 454.475 1120.14 451.029C1123.59 447.584 1125.53 442.91 1125.53 438.037C1125.53 433.164 1123.59 428.491 1120.14 425.045C1116.7 421.6 1112.02 419.664 1107.15 419.664H1046.47C1041.6 419.678 1036.93 421.619 1033.49 425.061C1030.05 428.504 1028.11 433.169 1028.09 438.038Z" fill="#E57373"/>
<path d="M1033.97 438.046C1033.99 441.354 1035.31 444.52 1037.65 446.858C1039.99 449.197 1043.15 450.52 1046.46 450.541H1107.15C1110.44 450.51 1113.59 449.181 1115.91 446.841C1118.22 444.501 1119.52 441.341 1119.52 438.047C1119.52 434.753 1118.22 431.593 1115.91 429.253C1113.59 426.913 1110.44 425.584 1107.15 425.553H1046.46C1043.15 425.558 1039.97 426.876 1037.63 429.218C1035.29 431.56 1033.97 434.734 1033.97 438.046Z" fill="#EF9A9A"/>
<path d="M1072.36 425.552L1072.37 450.54H1081.27V425.552H1072.36Z" fill="#E57373"/>
<path d="M994.578 451.216C997.297 455.256 1001.5 458.055 1006.28 459.001C1011.06 459.947 1016.02 458.963 1020.07 456.264L1070.5 422.504C1074.55 419.793 1077.36 415.585 1078.3 410.805C1079.25 406.025 1078.26 401.065 1075.55 397.016C1072.84 392.966 1068.63 390.159 1063.85 389.213C1059.07 388.266 1054.11 389.257 1050.06 391.967L999.63 425.727C995.592 428.446 992.794 432.654 991.847 437.429C990.9 442.205 991.882 447.162 994.578 451.216V451.216Z" fill="white"/>
<path d="M1023.6 409.674L1050.06 391.969C1054.11 389.259 1059.07 388.268 1063.85 389.215C1068.63 390.162 1072.84 392.968 1075.55 397.018C1078.26 401.067 1079.25 406.028 1078.3 410.807C1077.36 415.587 1074.55 419.796 1070.5 422.506L1044.05 440.21L1023.6 409.674Z" fill="#29B6F6"/>
<path opacity="0.5" d="M1002.59 434.114L1056.05 398.324C1056.64 397.927 1057.05 397.313 1057.19 396.616C1057.33 395.919 1057.18 395.196 1056.79 394.605V394.605C1056.39 394.015 1055.78 393.607 1055.08 393.469C1054.39 393.331 1053.66 393.474 1053.07 393.868L999.605 429.658C999.016 430.055 998.607 430.669 998.469 431.366C998.332 432.063 998.475 432.786 998.869 433.377V433.377C999.266 433.967 999.879 434.375 1000.58 434.513C1001.27 434.651 1002 434.508 1002.59 434.114V434.114Z" fill="white"/>
<path d="M1107.43 269.102C1107.43 269.102 1103.74 281.323 1100.33 283.111C1096.91 284.898 1065.95 283.111 1065.95 283.111L1069.79 293.164C1069.79 293.164 1111.95 296.518 1114.79 293.164C1117.63 289.809 1118.91 277.072 1118.91 277.072L1107.43 269.102Z" fill="#E2B6A9"/>
<path d="M1126.74 234.468C1135.22 236.252 1138.4 239.48 1138.11 249.049C1137.82 258.618 1135.64 286.569 1134.73 288.562C1133.82 290.554 1104.77 273.365 1103.91 271.232C1103.06 269.099 1110.76 254.053 1111.37 249.048C1111.97 244.043 1118.25 232.684 1126.74 234.468Z" fill="#D2DEE8"/>
<path d="M1158.02 493.393C1186.26 493.393 1209.14 490.039 1209.14 485.902C1209.14 481.766 1186.26 478.412 1158.02 478.412C1129.79 478.412 1106.91 481.766 1106.91 485.902C1106.91 490.039 1129.79 493.393 1158.02 493.393Z" fill="#85CCD5"/>
<path d="M1143.87 480.248L1138.46 477.238C1138.46 477.238 1137.3 478.978 1136.35 480.1C1134.53 482.266 1125.78 483.833 1125.78 486.904C1125.78 488.453 1129.04 489.846 1131.7 489.952C1133.87 490.044 1136.04 489.744 1138.11 489.068C1139.67 488.556 1143.25 487.098 1143.82 486.141C1144.11 485.592 1144.27 484.988 1144.31 484.371C1144.35 483.753 1144.25 483.134 1144.04 482.555C1144.31 480.843 1143.87 480.248 1143.87 480.248Z" fill="#F0F0F0"/>
<path d="M1136.35 480.1C1137.14 481.347 1138.22 482.383 1139.5 483.119C1140.66 483.759 1144.03 482.555 1144.03 482.555C1144.2 481.165 1144.24 479.763 1144.16 478.365L1136.9 477.063C1137.14 477.563 1137.21 478.125 1137.11 478.669C1137.02 479.214 1136.75 479.714 1136.35 480.1V480.1Z" fill="#FCD2C5"/>
<path d="M1123.18 305.465C1127.51 307.359 1146.42 309.29 1159.46 308.435V342.477C1156.92 344.479 1142.08 383.062 1135.67 405.326C1135.46 406.058 1144.95 471.502 1144.95 478.496C1142.31 481.417 1137.04 478.554 1136.97 478.267C1136.97 478.267 1116.47 445.129 1113.17 405.095C1109.33 358.588 1122.66 309.196 1123.18 305.465Z" fill="#4D3782"/>
<path d="M1184.83 480.632L1179.2 478.054C1179.2 478.054 1178.18 479.88 1177.32 481.074C1175.67 483.375 1167.07 485.622 1167.31 488.684C1167.43 490.229 1170.79 491.362 1173.45 491.258C1176.11 491.155 1178.42 490.824 1179.77 489.872C1181.46 488.69 1184.75 487.504 1185.24 486.506C1185.48 485.936 1185.6 485.322 1185.58 484.703C1185.57 484.084 1185.43 483.475 1185.17 482.915C1185.31 481.188 1184.83 480.632 1184.83 480.632Z" fill="#F0F0F0"/>
<path d="M1177.32 481.074C1178.2 482.255 1179.36 483.202 1180.69 483.834C1181.9 484.379 1185.17 482.918 1185.17 482.918C1185.32 481.189 1185.23 478.603 1185.23 478.603L1178.04 477.823C1178.18 478.385 1178.18 478.969 1178.06 479.532C1177.93 480.095 1177.68 480.622 1177.32 481.074V481.074Z" fill="#FCD2C5"/>
<path d="M1146.64 308.022C1151.04 302.311 1167.23 295.979 1178.51 300.753C1194.7 331.59 1173.27 376.699 1170.48 405.777C1170.48 405.777 1185.77 445.843 1185.77 478.799C1183.35 481.917 1177.89 479.477 1177.79 479.195C1177.79 465.805 1151.04 431.954 1148.09 407.697C1142.44 361.274 1146.41 311.793 1146.64 308.022Z" fill="#4D3782"/>
<path d="M1115.55 252.941C1115.74 255.413 1118.41 265.512 1118.56 280.846C1118.98 325.922 1108.14 368.456 1106.69 380.274C1109.34 397.978 1148.97 405.991 1172.83 394.961L1177.67 370.815L1179.02 393.691C1180.56 393.404 1183.85 393.321 1185.09 393.144C1189.49 321.707 1193.58 240.564 1160.57 226.38C1157.94 225.25 1144.15 224.182 1144.15 224.182C1144.15 224.182 1138.62 229.634 1134.77 230.179C1132.14 230.544 1129.7 227.839 1129.7 227.839C1129.7 227.839 1120.34 231.359 1118.67 232.488C1112.19 236.837 1114.98 245.503 1115.55 252.941Z" fill="#F3F4F9"/>
<path d="M1129.34 247.773C1129.34 247.773 1144.9 232.338 1155.37 226.389C1153.6 225.698 1151.75 225.214 1149.87 224.946L1144.14 224.177C1144.14 224.177 1138.62 229.645 1134.77 230.179C1132.13 230.545 1129.69 227.833 1129.69 227.833C1126.72 228.822 1123.81 229.991 1120.99 231.332C1122.07 239.117 1129.34 247.773 1129.34 247.773Z" fill="#4D3782"/>
<path d="M1125.63 213.984C1125.79 214.924 1129.48 224.577 1128.03 230.248C1129.68 235.105 1143.51 233.199 1146.14 224.217C1144.21 222.03 1141.1 209.421 1141.12 204.729C1140.1 205.734 1129.11 214.024 1125.63 213.984Z" fill="#E8BFB3"/>
<path d="M1126.3 189.94C1119.98 190.391 1114.12 192.694 1113.56 198.805C1113.36 200.995 1116.96 219.987 1127.57 221.454C1132.05 222.076 1139.31 213.535 1138.94 208.46C1138.94 208.46 1138.45 201.543 1138.45 201.473C1137.97 194.74 1133.09 189.452 1126.3 189.94Z" fill="#FCD2C5"/>
<path d="M1139.95 184.825C1127.54 175.611 1117.25 185.336 1116.7 188.585C1106.2 192.153 1110.76 207.616 1116.03 209.217C1112.07 197.932 1119.41 193.068 1119.41 193.068C1134.01 190.807 1141.54 207.527 1141.19 212.179C1141.19 212.179 1158.14 198.328 1139.95 184.825Z" fill="#444D98"/>
<path d="M1190.16 200.126C1185.39 197.386 1182.11 197.217 1177.32 185.174C1161.43 145.226 1132.33 172.853 1136.5 183.347C1137.53 185.927 1140.79 187.133 1142.07 183.667C1144.22 177.814 1155.97 169.482 1156.25 196.798C1156.33 204.002 1150.45 215.181 1172.8 221.17C1193.03 226.59 1180.46 235.098 1182.95 239.763C1189.37 251.745 1213.68 213.653 1190.16 200.126Z" fill="#444D98"/>
<path d="M1139.51 180.895C1138.71 180.528 1137.8 180.427 1136.93 180.606C1135.74 180.917 1134.68 181.626 1133.95 182.618C1138.62 183.461 1142.86 187.052 1142.86 187.052C1143.54 184.768 1143.14 182.451 1139.51 180.895Z" fill="#4D3782"/>
<path d="M1137.83 198.863C1136.83 199.074 1135.92 199.542 1135.16 200.222C1136.38 202.713 1137.71 205.143 1139.17 207.501C1140.03 206.939 1140.74 206.165 1141.22 205.253C1141.71 204.341 1141.95 203.321 1141.93 202.288C1141.62 200.562 1139.55 198.549 1137.83 198.863Z" fill="#FCD2C5"/>
<path d="M1094.46 262.642C1098.87 264.903 1117.83 307.749 1114.6 309.135C1111.38 310.52 1083.72 308.672 1081.41 308.672C1079.11 308.672 1055.57 266.623 1057.59 263.647C1057.59 263.647 1057.54 262.104 1059.86 261.036C1062.18 259.967 1090.42 260.566 1094.46 262.642Z" fill="#B2EBF2"/>
<path d="M1092.63 264.568C1097.04 266.829 1115.22 307.902 1111.99 309.287C1108.76 310.673 1081.1 308.823 1078.8 308.823C1076.5 308.823 1055.29 266.412 1057.59 263.644C1059.9 260.877 1086.94 261.648 1092.63 264.568Z" fill="#E0F7FA"/>
<path d="M1108.92 287.156C1108.92 287.156 1106.56 276.48 1103.03 276.02C1100.57 275.7 1102.01 280.247 1102.01 280.247C1097.37 281.971 1092.23 281.805 1087.72 279.784C1079.88 276.412 1090.64 295.314 1095.71 295.777C1100.79 296.239 1108 297.304 1108 297.304L1108.92 287.156Z" fill="#FCD2C5"/>
<path d="M1070.81 295.763C1066.97 297.308 1056.98 285.621 1062.97 281.471C1068.96 277.321 1074.65 294.221 1070.81 295.763Z" fill="#FCD2C5"/>
<path d="M1168.09 246.479C1169.73 261.495 1165.56 310.601 1159.33 311.446C1147.6 313.037 1108 297.302 1108 297.302L1106.77 286.704C1106.77 286.704 1144.2 298.049 1151.34 292.696C1154.54 290.293 1144.88 253.974 1148.57 244.139C1151.35 236.715 1166.78 234.481 1168.09 246.479Z" fill="#FCD2C5"/>
<path d="M1160.58 234.468C1169.06 236.252 1172.24 239.48 1171.95 249.049C1171.66 258.618 1169.48 286.569 1168.57 288.562C1167.66 290.554 1149.2 283.935 1148.35 281.806C1147.49 279.678 1144.6 254.059 1145.2 249.05C1145.81 244.042 1152.09 232.684 1160.58 234.468Z" fill="#D2DEE8"/>
<path d="M1082.06 261.928C1082.06 261.928 1081.26 257.022 1080.07 256.861C1078.87 256.7 1068.27 256.352 1067.47 256.861C1066.68 257.371 1068.19 261.455 1068.19 261.455L1082.06 261.928Z" fill="#B2EBF2"/>
<path d="M1080.11 256.962C1079.58 257.27 1079.1 257.655 1078.69 258.103L1080.11 262.304L1081.9 260.907C1081.9 260.907 1080.87 256.554 1080.11 256.962Z" fill="#8ED7E0"/>
<path d="M1078.69 258.095C1078.69 258.095 1067.42 257.205 1067.23 257.593C1067.04 257.981 1068.22 261.966 1068.22 261.966C1068.22 261.966 1071.46 261.878 1074.02 261.966C1076.58 262.053 1080.15 262.311 1080.15 262.311L1078.69 258.095Z" fill="#7CCBD5"/>
</g>
<defs>
<linearGradient id="paint0_linear_3_128" x1="34.1497" y1="599.075" x2="1235.11" y2="-175.818" gradientUnits="userSpaceOnUse">
<stop stop-color="#E8F5B3"/>
<stop offset="0.165" stop-color="#D3E2F7"/>
<stop offset="0.276" stop-color="#E3EEF9"/>
<stop offset="0.472" stop-color="#E9F3FA"/>
<stop offset="0.649" stop-color="#C9DEF8"/>
<stop offset="0.907" stop-color="#D4E397"/>
<stop offset="1" stop-color="#C4D2E6"/>
</linearGradient>
<clipPath id="clip0_3_128">
<rect width="1366" height="859.505" fill="white"/>
</clipPath>
<clipPath id="clip1_3_128">
<rect width="274.528" height="386.815" fill="white" transform="translate(89.1613 378.616)"/>
</clipPath>
<clipPath id="clip2_3_128">
<rect width="282.762" height="329.147" fill="white" transform="translate(926.382 164.244)"/>
</clipPath>
</defs>
</svg>
