<svg id="atom_icon_a-icon-globe" data-name="atom/icon/a-icon-globe" xmlns="http://www.w3.org/2000/svg" width="24" height="24" viewBox="0 0 24 24">
  <rect id="Container" width="24" height="24" fill="none"/>
  <path id="Icon_awesome-globe" data-name="Icon awesome-globe" d="M13.571,6.443C12.986,2.841,11.607.312,10,.312S7.018,2.841,6.433,6.443ZM6.13,10.315A25.279,25.279,0,0,0,6.263,12.9h7.473a25.279,25.279,0,0,0,.133-2.581,25.279,25.279,0,0,0-.133-2.581H6.263A25.279,25.279,0,0,0,6.13,10.315Zm13.1-3.872A10.023,10.023,0,0,0,12.853.732,13.612,13.612,0,0,1,14.87,6.443ZM7.147.732A10.016,10.016,0,0,0,.778,6.443H5.134A13.557,13.557,0,0,1,7.147.732Zm12.511,7H15.031c.085.847.133,1.714.133,2.581s-.048,1.734-.133,2.581h4.622A9.916,9.916,0,0,0,20,10.315,10.089,10.089,0,0,0,19.657,7.733ZM4.84,10.315c0-.867.048-1.734.133-2.581H.347a9.778,9.778,0,0,0,0,5.162H4.969C4.888,12.049,4.84,11.182,4.84,10.315Zm1.593,3.872c.585,3.6,1.964,6.13,3.569,6.13s2.984-2.529,3.569-6.13ZM12.857,19.9a10.033,10.033,0,0,0,6.372-5.711H14.874A13.612,13.612,0,0,1,12.857,19.9ZM.778,14.186A10.023,10.023,0,0,0,7.151,19.9a13.612,13.612,0,0,1-2.017-5.711Z" transform="translate(2 1.688)" fill="#fff"/>
</svg>
